# xmcd
# 
# Track frame offsets:
#     150
#     19143
#     44789
#     64892
#     97104
#     116687
#     135496
#     198468
#     224380
#     287230
# 
# Disc length: 4478
# 
# Revision: 1
# Processed by: cddbd v1.5.2PL0 Copyright (c) Steve Scherf et al.
# Submitted via: BonkEnc v1.0.5
# 
DISCID=a2117c0a
DTITLE=Quinteplus - So Far Away, So Close..
DYEAR=0
DGENRE=Jazz
TTITLE0=Loberman, El Hombre Lobo
TTITLE1=Los Ejes De Mi Carreta
TTITLE2=Blackman EWl Justiciero
TTITLE3=El Marques
TTITLE4=El Pasito De Nana
TTITLE5=Zamba De Mis Pagos
TTITLE6=El Rapidon No Se Rinde
TTITLE7=Pochoclito
TTITLE8=Ode To Billy Joe
TTITLE9=Jose Bules
EXTD=
EXTT0=
EXTT1=
EXTT2=
EXTT3=
EXTT4=
EXTT5=
EXTT6=
EXTT7=
EXTT8=
EXTT9=
PLAYORDER=
